<?xml version="1.0" encoding="UTF-8" standalone="no"?>
<!-- Created with Inkscape (http://www.inkscape.org/) -->

<svg
   xmlns:dc="http://purl.org/dc/elements/1.1/"
   xmlns:cc="http://creativecommons.org/ns#"
   xmlns:rdf="http://www.w3.org/1999/02/22-rdf-syntax-ns#"
   xmlns:svg="http://www.w3.org/2000/svg"
   xmlns="http://www.w3.org/2000/svg"
   xmlns:sodipodi="http://sodipodi.sourceforge.net/DTD/sodipodi-0.dtd"
   xmlns:inkscape="http://www.inkscape.org/namespaces/inkscape"
   width="306.5567"
   height="313.47406"
   viewBox="0 0 306.55665 313.47404"
   id="svg4155"
   version="1.1"
   inkscape:version="0.91 r13725"
   sodipodi:docname="Lutz - wooden  triangle.svg">
  <defs
     id="defs4157" />
  <sodipodi:namedview
     id="base"
     pagecolor="#ffffff"
     bordercolor="#666666"
     borderopacity="1.0"
     inkscape:pageopacity="0.0"
     inkscape:pageshadow="2"
     inkscape:zoom="0.98994949"
     inkscape:cx="-101.13746"
     inkscape:cy="171.89633"
     inkscape:document-units="px"
     inkscape:current-layer="layer1"
     showgrid="false"
     fit-margin-top="10"
     fit-margin-left="10"
     fit-margin-right="10"
     fit-margin-bottom="10"
     inkscape:window-width="1538"
     inkscape:window-height="877"
     inkscape:window-x="54"
     inkscape:window-y="-8"
     inkscape:window-maximized="1"
     units="px" />
  <metadata
     id="metadata4160">
    <rdf:RDF>
      <cc:Work
         rdf:about="">
        <dc:format>image/svg+xml</dc:format>
        <dc:type
           rdf:resource="http://purl.org/dc/dcmitype/StillImage" />
        <dc:title></dc:title>
      </cc:Work>
    </rdf:RDF>
  </metadata>
  <g
     inkscape:label="Layer 1"
     inkscape:groupmode="layer"
     id="layer1"
     transform="translate(-1028.352,-375.4908)">
    <g
       id="g5332"
       transform="translate(727.88301,11.629819)"
       style="fill:#ffffff;stroke:#faffff;stroke-opacity:1">
      <path
         transform="translate(708.64787,47.873393)"
         inkscape:connector-curvature="0"
         id="path5328"
         d="m -156.69585,732.63405 c -0.62564,-0.79537 -0.6678,-1.31535 -0.12357,-1.52419 0.64034,-0.24572 1.46637,0.75285 1.27,1.53527 -0.20798,0.82863 -0.48804,0.82592 -1.14643,-0.0111 z"
         style="opacity:1;fill:#ffffff;fill-opacity:1;stroke:#faffff;stroke-width:0.75761443;stroke-miterlimit:4;stroke-dasharray:none;stroke-dashoffset:0;stroke-opacity:1" />
      <path
         transform="translate(708.64787,47.873393)"
         inkscape:connector-curvature="0"
         id="path5330"
         d="m -152.25267,734.39378 c -0.28201,-0.282 -0.19571,-0.51799 0.48543,-1.32749 0.79834,-0.94877 1.01106,-0.9689 1.22513,-0.11595 0.25678,1.02309 -1.03818,2.11583 -1.71056,1.44344 z"
         style="opacity:1;fill:#ffffff;fill-opacity:1;stroke:#faffff;stroke-width:0.75761443;stroke-miterlimit:4;stroke-dasharray:none;stroke-dashoffset:0;stroke-opacity:1" />
    </g>
    <path
       style="fill:#000000"
       d="m 1269.6036,678.51909 c -0.1818,-0.18183 -21.7032,-0.67061 -47.8253,-1.0862 -26.1221,-0.41559 -54.5259,-1.01471 -63.1197,-1.33138 -8.5937,-0.31667 -38.4315,-0.61975 -66.3061,-0.67351 -27.8746,-0.0537 -51.4622,-0.58052 -52.4169,-1.17056 -1.237,-0.76453 -1.6866,-3.52538 -1.5643,-9.60724 0.094,-4.69393 0.1738,-8.81567 0.1766,-9.15942 0.4465,-54.97218 2.6002,-168.2683 3.8019,-199.99999 0.6118,-16.15624 1.1748,-37.77679 1.2511,-48.04566 0.1352,-18.20704 0.8791,-21.95433 4.3582,-21.95433 1.7913,0 25.5295,24.15441 59.5334,60.57701 23.5376,25.21189 32.9959,35.12923 50.7117,53.17298 10.4625,10.65625 21.4543,21.96141 24.4261,25.12257 13.1188,13.95465 29.3034,30.81655 49.0921,51.14676 17.7466,18.23221 50.085,51.751 86.095,89.23761 3.9002,4.06006 7.0912,8.05101 7.0912,8.86876 0,0.81775 -0.9844,2.37547 -2.1875,3.46161 -1.8502,1.67026 -6.089,1.95913 -27.4872,1.87318 -13.9149,-0.0559 -25.4485,-0.25038 -25.6303,-0.43219 z m 19.7328,-9.2329 c 0.026,-3.11872 0.5204,-9.42387 1.0978,-14.01145 l 1.0499,-8.34102 -4.6883,-5.72148 c -5.0212,-6.12762 -7.6064,-7.3567 -6.4894,-3.08517 0.3792,1.44995 -0.2409,9.91872 -1.378,18.81948 -2.2898,17.92394 -2.3002,17.8905 5.5512,17.96464 l 4.8089,0.0454 0.048,-5.6704 z m 12.0623,1.98219 c -0.2117,-1.97857 0.036,-4.50982 0.5509,-5.625 0.637,-1.38024 1.159,-0.23169 1.6349,3.5974 l 0.6991,5.625 7.1875,0.37487 c 7.662,0.39964 8.6887,-0.50384 4.6875,-4.12487 -2.2482,-2.03463 -2.5,-2.05414 -2.5,-0.19374 0,1.13781 -0.5625,2.06874 -1.25,2.06874 -0.6875,0 -1.26,-1.54688 -1.2722,-3.4375 -0.016,-2.53503 -2.1996,-5.66826 -8.3157,-11.93435 -4.5614,-4.67326 -8.7187,-8.04826 -9.2386,-7.5 -0.5199,0.54826 -1.3338,6.3406 -1.8088,12.87185 l -0.8636,11.875 5.437,0 c 5.2456,0 5.4234,-0.12659 5.052,-3.5974 z m -90.2411,2.11112 c -6e-4,-0.55755 -0.7921,-4.95122 -1.759,-9.76372 -2.8756,-14.31309 -3.6571,-35.64384 -1.4427,-39.375 2.4133,-4.06627 2.6646,-4.69875 4.2215,-10.625 5.9697,-22.72293 6.2808,-25.25028 4.5397,-36.875 -1.1286,-7.53514 0.4646,-5.69607 2.4447,2.82194 1.3839,5.95351 1.2855,8.15525 -0.7737,17.31204 -2.8807,12.80903 -5.9815,23.19618 -8.1694,27.36602 -1.8568,3.5388 -1.2538,23.65907 1.2082,40.3125 l 1.4321,9.6875 7.2304,0 7.2304,0 -2.4244,-5.65573 c -2.1036,-4.90767 -2.4243,-8.67028 -2.4243,-28.44735 0,-16.48523 0.5102,-24.48674 1.8438,-28.91793 1.014,-3.36948 1.8437,-10.28886 1.8437,-15.37642 0,-6.56143 0.4108,-8.9962 1.4134,-8.37657 1.9128,1.18217 0.6618,20.98394 -1.6915,26.774 -2.802,6.89406 -2.19,46.14701 0.8428,54.0625 l 2.275,5.9375 10.8073,0 10.8073,0 -0.04,-8.4375 c -0.046,-9.80139 1.7078,-37.84491 2.4411,-39.03137 0.2745,-0.4441 0.6166,-3.86717 0.7604,-7.60679 0.1437,-3.73964 0.7253,-7.40316 1.2925,-8.14116 0.632,-0.82239 -1.5708,-4.07154 -5.6904,-8.39333 l -6.7216,-7.0515 -0.7528,15.89333 c -0.4141,8.74132 -1.6178,22.14745 -2.675,29.79137 -1.1595,8.38371 -1.623,17.31106 -1.1681,22.5 0.9409,10.73275 -1.2745,8.3275 -2.4698,-2.68154 -0.5269,-4.8527 -0.1555,-10.85765 1.0438,-16.875 1.024,-5.13782 2.2484,-18.77052 2.7209,-30.29487 l 0.8592,-20.95336 -16.892,-17.17164 c -9.2906,-9.4444 -18.4086,-18.85913 -20.2623,-20.92163 -2.4162,-2.68849 -3.113,-3.04233 -2.4614,-1.25 1.7294,4.75721 2.1805,31.34248 0.6124,36.09377 -2.7083,8.20615 -5.0888,5.52826 -8.7507,-9.84378 -1.474,-6.18749 -2.9341,-14.06249 -3.2446,-17.49999 -1.0665,-11.80829 -1.8977,-18.1591 -2.6603,-20.32773 -0.5019,-1.4272 -0.3443,-1.74353 0.4593,-0.92227 1.9612,2.004 4.1447,11.06292 4.1447,17.19492 0,5.6107 4.2799,28.75354 5.7605,31.14925 2.8864,4.67024 5.085,-13.65808 3.1002,-25.84417 -2.2834,-14.01982 -2.6468,-14.74257 -12.4133,-24.6875 -5.2326,-5.32813 -10.23,-9.6875 -11.1055,-9.6875 -0.8755,0 -1.5919,-0.67635 -1.5919,-1.50299 0,-0.82665 -1.7896,-3.34947 -3.977,-5.60627 -2.1874,-2.25682 -3.6222,-4.45813 -3.1886,-4.89183 0.4337,-0.43369 4.8037,3.35476 9.7111,8.41878 29.1797,30.11096 38.8267,39.57877 33.7074,33.08119 -1.0296,-1.30685 -5.8109,-6.4215 -10.625,-11.36587 -4.8141,-4.94437 -21.4091,-22.14331 -36.8779,-38.21986 -15.4687,-16.07655 -30.6562,-31.81026 -33.75,-34.96382 -3.0937,-3.15355 -13.2187,-13.79414 -22.5,-23.64576 -9.2812,-9.85162 -17.645,-18.70191 -18.5863,-19.66732 -2.1707,-2.2265 -3.5227,-1.05246 -1.5396,1.33699 0.9592,1.15576 1.028,1.93645 0.1955,2.21771 -0.8764,0.29606 -0.8594,3.01727 0.053,8.55906 1.9951,12.11411 0.564,113.15642 -1.8324,129.37499 -1.0158,6.87499 -2.1836,20.50052 -2.595,30.27893 -0.7733,18.37646 -0.9193,19.31326 -4.1374,26.54585 -3.1097,6.98905 -3.231,13.6919 -0.4587,25.35057 1.8244,7.67234 2.2573,11.82149 1.4537,13.93501 -1.0629,2.7957 -0.8167,3.05075 3.4638,3.58784 2.5345,0.318 5.5584,0.0926 6.7198,-0.5009 1.1614,-0.59349 2.3909,-0.62715 2.7323,-0.0749 0.3414,0.55235 2.8799,1.13758 5.6412,1.3005 4.0605,0.23959 5.3619,-0.25053 6.8063,-2.56338 2.5229,-4.03971 3.4756,-15.07749 2.1302,-24.67881 -1.9143,-13.66098 -2.5391,-35.97831 -0.9272,-33.12029 0.7567,1.34173 1.5023,6.65824 1.6569,11.81449 0.1546,5.15625 0.6842,16.4719 1.177,25.1459 0.7485,13.17471 0.5691,16.42602 -1.0894,19.75058 l -1.9853,3.9797 6.4876,-0.3756 6.4877,-0.37559 1.6584,-8.74999 c 1.2897,-6.80505 1.3596,-11.31985 0.3142,-20.31135 -0.7393,-6.35875 -0.9861,-15.41449 -0.5484,-20.12386 l 0.7958,-8.5625 -4.0962,-0.81923 c -2.5258,-0.50517 -6.3562,-3.09322 -9.9917,-6.75114 -4.8115,-4.84114 -6.0576,-7.03503 -6.7766,-11.93092 -1.0463,-7.12412 -0.072,-12.54825 3.2326,-17.99106 1.4913,-2.45656 2.6551,-7.21004 3.028,-12.36821 0.3332,-4.60799 1.0044,-8.99996 1.4916,-9.75994 0.9554,-1.4904 2.5385,-33.69471 3.4676,-70.54213 l 0.5777,-22.91029 -4.529,-5.52715 c -2.491,-3.03993 -4.952,-5.52714 -5.4689,-5.52714 -0.5169,0 -0.6729,3.15809 -0.3467,7.01799 0.3261,3.85989 -0.062,18.34427 -0.8635,32.18749 -0.8011,13.84324 -1.6432,33.88826 -1.8713,44.54451 -0.2787,13.01872 -1.2454,23.47582 -2.9468,31.875 -3.4856,17.20768 -4.8888,67.66017 -2.3062,82.92016 1.5565,9.19644 1.2298,17.7171 -0.7553,19.70219 -0.8098,0.80982 -2.582,-28.0838 -2.6526,-43.24736 -0.1304,-28.01693 0.9081,-45.86051 3.3467,-57.49999 2.4689,-11.78425 2.9433,-20.0823 5.3708,-93.93827 l 0.8484,-25.81327 -5.9803,-6.39349 c -7.014,-7.49847 -6.8071,-10.10926 0.2311,-2.91605 7.9266,8.10129 23.038,24.13344 31.5158,33.43608 4.3858,4.8125 15.6225,16.51306 24.9706,26.00124 12.6509,12.84047 16.5587,17.52183 15.2841,18.30956 -1.1024,0.68135 -1.419,2.10564 -0.8887,3.99875 0.453,1.61725 1.1281,9.12795 1.5001,16.69045 0.372,7.5625 1.5516,17.94072 2.6215,23.06273 1.9269,9.22578 1.9093,11.22008 -0.3567,40.36656 -0.6651,8.55469 -0.3736,10.62578 2.5087,17.82565 4.2511,10.61895 4.2541,18.34244 0.011,27.77191 -2.4859,5.52424 -3.2488,9.23856 -3.2436,15.79203 0.01,6.32187 -0.3601,8.20196 -1.3924,7.16963 -2.3519,-2.35182 -1.4725,-13.96176 1.5707,-20.73852 4.5425,-10.1152 4.7086,-18.31002 0.6163,-30.39552 -3.4852,-10.29268 -3.4909,-10.36385 -1.7896,-22.46494 2.1975,-15.63091 2.071,-25.40962 -0.4666,-36.06656 -1.1227,-4.71514 -2.3008,-14.76047 -2.6179,-22.32297 -0.7782,-18.56099 -1.6318,-22.90391 -5.5015,-27.9882 l -3.3,-4.33584 -0.7761,18.66203 c -0.4269,10.2641 -0.9134,25.97451 -1.0812,34.91201 -0.2377,12.65541 -0.5427,15.14397 -1.3792,11.25 -0.936,-4.35754 -0.4612,-45.34348 0.6984,-60.28827 0.4453,-5.73875 0.5422,-5.61744 -29.9619,-37.53127 l -8.75,-9.15439 0.1541,21.74557 c 0.085,11.96007 -0.3716,24.77921 -1.0141,28.48697 -0.6425,3.70776 -1.122,12.17484 -1.0655,18.81571 0.056,6.64088 -0.7527,16.98019 -1.7983,22.97624 -2.8764,16.49447 -3.1056,15.9377 4.9502,12.02616 l 6.8514,-3.32672 0.048,-6.25 c 0.027,-3.4375 0.5661,-9.90625 1.1989,-14.375 0.6328,-4.46875 1.2953,-20.36543 1.4723,-35.32595 0.1769,-14.96052 0.7644,-27.89802 1.3055,-28.74999 1.3346,-2.10126 1.3863,-0.7939 1.1007,27.82594 -0.1338,13.40625 -0.785,27.92542 -1.4472,32.26484 -0.6622,4.3394 -1.488,11.71589 -1.8351,16.39221 l -0.6312,8.50238 4.73,0.67212 c 2.6015,0.36966 5.7647,1.08831 7.0295,1.59701 2.118,0.85187 2.2344,0.39287 1.4754,-5.81434 -0.5025,-4.10965 -0.042,-11.95677 1.1795,-20.11105 1.13,-7.54101 1.9283,-20.07748 1.8308,-28.74999 -0.1973,-17.5141 -0.053,-19.10115 1.3393,-14.75318 1.5459,4.82715 1.4192,29.92135 -0.193,38.20792 -0.7937,4.07939 -1.4482,13.19651 -1.4544,20.26028 -0.011,12.02382 0.1906,13.06056 3.1561,16.25 6.0691,6.52723 7.6582,10.17604 7.6515,17.56784 -0.01,8.14198 -2.5717,14.01624 -8.2253,18.84214 -5.4602,4.6609 -6.7322,5.26317 -13.0458,6.17719 l -5.6617,0.81962 -0.3573,11.25 c -0.1966,6.1875 0.1474,14.8332 0.7644,19.21267 1.0338,7.33839 0.2357,16.75049 -2.1051,24.82554 l -0.8083,2.78821 27.952,0.33679 c 15.3735,0.18524 35.6863,0.51171 45.1394,0.72551 9.4531,0.21379 17.187,-0.0675 17.1865,-0.625 z m -33.7429,-3.98656 c 0,-1.63506 1.7011,-5.95669 3.7876,-9.60361 2.0866,-3.64691 3.7968,-8.21539 3.8004,-10.15215 0.013,-6.47115 -1.2201,-40.7307 -2.4423,-67.8964 -1.1645,-25.88392 -1.7326,-29.74242 -7.1312,-48.43749 -0.4467,-1.54688 -0.4514,-2.8125 -0.01,-2.8125 1.6537,0 5.3101,12.23022 8.2215,27.5 0.5899,3.09375 0.8906,13.21875 0.6683,22.49999 -0.2483,10.36533 0.2032,19.76819 1.1704,24.375 0.9865,4.69826 1.4762,15.43826 1.3111,28.75 l -0.2635,21.25 -4.5529,8.75 c -3.1845,6.12017 -4.5547,7.85651 -4.5589,5.77716 z m -42.3392,-26.24464 c -0.3546,-21.14889 -0.099,-27.55191 1.1298,-28.31139 1.262,-0.77997 1.4407,1.68855 0.8701,12.0237 -0.3949,7.15285 -0.1573,18.03221 0.5279,24.17636 1.1968,10.73103 0.6631,19.46072 -1.1888,19.44753 -0.4845,-0.004 -1.0871,-12.30473 -1.339,-27.3362 z m 17.2202,11.40498 c -0.182,-8.76563 -0.1257,-19.875 0.1251,-24.6875 0.5874,-11.27321 0.5776,-23.63849 -0.029,-36.52066 -0.266,-5.64887 -0.09,-10.6645 0.3916,-11.14584 0.4813,-0.48133 0.9182,2.73422 0.9708,7.14567 0.053,4.41146 0.3888,9.14583 0.7472,10.52083 0.5808,2.22838 0.5803,10.02251 0,35 -0.096,4.125 0.026,10.59375 0.2724,14.375 0.7159,11.00256 0.2316,21.25 -1.0042,21.25 -0.6275,0 -1.2899,-7.17188 -1.4719,-15.9375 z m 45.5266,10.625 c -0.5713,-2.92188 -1.0387,-15.73721 -1.0387,-28.47854 l 0,-23.16603 3.8432,-4.95897 c 4.7759,-6.16243 6.9924,-15.84502 6.775,-29.59662 -0.2005,-12.67732 -0.099,-13.51668 1.2568,-10.36233 3.6152,8.41309 -0.5822,36.12067 -6.2487,41.24885 -4.2206,3.81957 -5.1982,10.45427 -4.0059,27.18749 0.6001,8.42251 1.0435,18.12615 0.9854,21.56365 -0.058,3.4375 0.354,7.51562 0.9159,9.0625 0.6199,1.70636 0.5368,2.8125 -0.2112,2.8125 -0.6782,0 -1.7005,-2.39063 -2.2718,-5.3125 z m 67.0863,7.99902 c 0,-0.5849 -0.6407,-2.90139 -1.4238,-5.14775 -1.0681,-3.06395 -1.062,-6.15518 0.024,-12.37402 0.7965,-4.55936 1.7525,-14.47725 2.1245,-22.03975 l 0.6763,-13.75 -4.8187,-4.6902 -4.8187,-4.69021 -0.16,6.83766 c -0.088,3.76071 -0.7332,9.8088 -1.4337,13.4402 -0.7004,3.6314 -1.6463,14.89942 -2.1019,25.04005 l -0.8283,18.4375 6.3799,0 c 3.509,0 6.38,-0.47857 6.38,-1.06348 z m 10.3591,-1.78351 c -0.2993,-1.56584 0.3412,-8.8099 1.4233,-16.09791 2.9739,-20.028 2.7847,-21.98792 -2.6611,-27.5649 -2.5458,-2.60711 -4.9725,-4.7402 -5.3928,-4.7402 -0.4203,0 -0.9075,5.37491 -1.0826,11.94426 -0.1751,6.56935 -0.7635,14.75978 -1.3075,18.20098 -0.9507,6.0144 -0.6822,16.28259 0.5111,19.54226 0.3146,0.85937 2.4804,1.5625 4.8129,1.5625 3.7392,0 4.1765,-0.33683 3.6967,-2.84699 z m -197.8591,-4.31688 c 0,-2.48397 -0.8836,-9.23206 -1.9636,-14.99574 -2.0038,-10.69308 -1.1497,-20.96405 2.0652,-24.83784 1.5587,-1.87806 3.3465,-17.42261 4.8328,-42.01913 0.6112,-10.11537 1.4222,-18.89456 1.8021,-19.50931 1.1587,-1.8748 2.3563,-101.99479 1.4152,-118.31125 l -0.8816,-15.28387 -6.5224,-7.06448 c -3.5873,-3.88547 -6.9064,-7.06449 -7.3756,-7.06449 -0.4692,0 -0.8496,2.67188 -0.8452,5.9375 0.039,28.84386 -1.1204,87.82438 -1.7748,90.31249 -0.4521,1.71875 -0.306,8.12287 0.3247,14.23139 1.6907,16.37494 -0.7136,32.01861 -4.9211,32.01861 -3.1288,0 -3.8523,-12.09753 -4.2984,-71.875 -0.2565,-34.375 -0.8274,-67.64392 -1.2686,-73.93094 -0.7462,-10.632 -1.0674,-11.6804 -4.5955,-15 l -3.7933,-3.56905 0.9061,7.5 c 0.4984,4.125 1.1107,29.4375 1.3607,56.24999 0.5254,56.33602 2.1545,96.14598 4.1179,100.625 0.7534,1.71875 2.4847,11.39121 3.8474,21.49437 2.5952,19.24195 4.9531,27.25562 8.0194,27.25562 1.1464,0 2.1093,-1.74909 2.5804,-4.6875 2.6012,-16.2245 3.7183,-33.25309 3.8747,-59.06249 0.1037,-17.12544 0.7691,-31.72066 1.5957,-35 1.3581,-5.38877 1.2804,-19.61267 -0.3708,-67.87354 -0.3439,-10.05036 -0.1213,-16.95876 0.5333,-16.55415 3.2522,2.00992 4.4932,67.24779 1.6418,86.30269 -1.3449,8.98739 -1.6512,17.24204 -1.0898,29.375 1.0286,22.23255 -3.1397,65.67305 -6.6373,69.1706 -4.1537,4.15374 -9.803,-7.20261 -12.0208,-24.16437 -0.8544,-6.53467 -2.7508,-18.54776 -4.2143,-26.69572 -1.8484,-10.29183 -2.4583,-17.5424 -1.9977,-23.75 0.3813,-5.13936 -0.08,-13.42882 -1.0859,-19.51202 -1.2809,-7.74633 -1.7568,-23.46731 -1.7784,-58.75 -0.036,-59.07586 -0.098,-64.35009 -0.7493,-63.69431 -0.897,0.90363 -1.8969,26.6726 -2.5908,66.77082 -0.3688,21.3125 -1.0285,54.21875 -1.4659,73.125 -0.4374,18.90625 -0.8991,45.06249 -1.026,58.12499 -0.1269,13.0625 -0.6861,36.26563 -1.2427,51.5625 l -1.012,27.8125 5.9359,0 c 5.176,0 5.8163,-0.28008 5.0015,-2.1875 -2.5147,-5.8867 -4.3773,-15.63159 -5.0247,-26.28969 -0.3933,-6.47499 -1.2424,-13.15935 -1.8867,-14.85413 -0.6444,-1.69479 -1.1131,-6.56043 -1.0416,-10.81255 l 0.13,-7.73113 2.3328,13.125 c 1.283,7.21875 2.3837,16.21875 2.4459,20 0.062,3.78125 1.3125,11.79687 2.7784,17.8125 l 2.6653,10.9375 6.7675,0 c 5.9633,0 6.658,-0.25997 5.8453,-2.1875 -0.5072,-1.20313 -1.7041,-6.6875 -2.6596,-12.1875 -0.9555,-5.5 -2.5479,-11.96875 -3.5385,-14.375 -0.9907,-2.40625 -2.4682,-10 -3.2834,-16.875 -0.8152,-6.875 -2.8055,-16.02846 -4.4229,-20.34104 -1.6174,-4.31256 -2.9653,-10.21881 -2.9952,-13.12499 -0.03,-2.90618 -0.5661,-7.81522 -1.1915,-10.90897 -1.4028,-6.93996 -3.0805,-28.35717 -2.1542,-27.49999 0.6642,0.61457 3.8023,20.91613 5.8983,38.15757 0.5872,4.83042 2.1615,11.58042 3.4984,15 1.3369,3.41958 3.1364,12.12367 3.999,19.34242 0.8625,7.21875 2.266,14.53125 3.1187,16.25 0.8527,1.71875 2.1774,7.43395 2.9438,12.70044 1.6931,11.63467 3.4481,15.78089 6.9257,16.36166 3.9156,0.65391 4.5162,-0.008 4.5162,-4.97597 z m 243.75,5.53408 c 0,-0.20889 -2.1094,-2.31826 -4.6875,-4.6875 l -4.6875,-4.30771 4.3077,4.6875 c 4.0095,4.36302 5.0673,5.26223 5.0673,4.30771 z m -11.5145,-11.98491 c -0.911,-1.30059 -15.146,-16.26973 -31.6334,-33.26475 -45.0116,-46.39748 -64.222,-65.85416 -56.7678,-57.49554 3.6787,4.125 20.2839,21.56249 36.9005,38.74999 16.6166,17.1875 35.1634,36.45312 41.2151,42.8125 10.9017,11.4559 13.4856,13.76652 10.2856,9.1978 z m -195.0364,-52.93974 c -3.2039,-2.22993 -6.4893,-5.46431 -7.301,-7.18749 -0.8405,-1.78425 -1.7132,-2.47853 -2.0271,-1.61269 -0.8037,2.21666 3.3429,7.28061 8.379,10.23266 6.8098,3.99176 7.4198,3.07119 0.9491,-1.43248 z m 22.4151,0.37094 c 9.0644,-4.1153 13.0819,-17.05846 8.614,-27.75172 -3.5424,-8.47809 -12.5597,-13.60285 -22.4771,-12.77427 -7.7963,0.65135 -11.2522,2.84107 -14.485,9.17798 -7.5804,14.85881 3.3251,33.22021 19.9839,33.64662 1.7188,0.044 5.4826,-0.99038 8.3642,-2.29861 z m -70.518,-64.07822 c 0.1534,-5.6998 0.1391,-13.73827 -0.032,-17.86327 -0.1707,-4.125 -0.045,-31.17499 0.2787,-60.11107 l 0.5891,-52.61106 -3.8346,-3.63893 -3.8345,-3.63893 0.8585,9.375 c 0.4722,5.15625 1.0154,38.06249 1.2071,73.12499 0.1917,35.0625 0.7848,65.07975 1.3179,66.70501 1.6521,5.03624 3.1405,0.1423 3.4495,-11.34174 z m 2.6634,-133.49623 c -8.1865,-8.26672 -15.0742,-15.59071 -15.306,-16.27554 -0.2318,-0.68482 -1.6381,-1.86688 -3.125,-2.62678 -1.487,-0.75991 0.3902,1.9075 4.1714,5.92757 16.9345,18.00408 28.0374,29.11198 28.5683,28.58113 0.3168,-0.31679 -6.1221,-7.33966 -14.3087,-15.60638 z"
       id="path5522"
       inkscape:connector-curvature="0" />
  </g>
</svg>
